# xmcd CD database file
#
# Track frame offsets:
#	150
#	11640
#	21505
#	33705
#	47335
#	58042
#	70067
#	80472
#	90747
#	102675
#	111950
#	122565
#	133230
#	146000
#	159565
#	169625
#	180567
#	190207
#	201052
#	212407
#	224520
#	237210
#	248705
#	259640
#	269740
#
# Disc length: 3633 seconds
#
# Revision: 2
# Processed by: cddbd v1.5.1PL2 Copyright (c) Steve Scherf et al.
# Submitted via: CDex 1.51
#
DISCID=720e2f19
DTITLE=Various Artist - Hillbilly Music...Thank God! Volume 1
DYEAR=1989
DGENRE=Country
TTITLE0=Hank Thompson and his Brazos Valley Boys - How Cold Hearted Can You Get
TTITLE1=Jimmy Bryant with Speedy West - Stratosphere Boogie
TTITLE2=Merle Travis - Nine Pound Hammer
TTITLE3=Merle Travis - Merles's Boogie Woogie
TTITLE4=The Louvin Brothers - You're Learning
TTITLE5=Jean Shepard and Speedy West - Twice The Lovin' (In Half The Time)
TTITLE6=Faron Young - Live Fast, Love Hard, Die Young
TTITLE7=The Farmer Boys - Yearning, Burning Heart
TTITLE8=Tennessee Ernie Ford and Ella Mae Morse with Cliffie Stone's Orchestra - Hog-Tied Over You
TTITLE9=Skeets McDonald - You Oughta See Grandma Rock
TTITLE10=Big Bill Lister - There's A Tear In My Beer
TTITLE11=The Milo Twins - Johnson To Jones
TTITLE12=Foy Willing and his Riders Of The Purple Sage - Texas Blues
TTITLE13=Tex Ritter - Fort Worth Jail
TTITLE14=Jimmy Lee - I'm Diggin' A Hole To Bury My Heart
TTITLE15=Gene O'Quin - It's No Use Talkin' Baby (I'm Through)
TTITLE16=The Farmer Boys - Flash, Crash And Thunder
TTITLE17=Jean Shepard - Two Whoops And A Holler
TTITLE18=The Louvin Brothers - I Wish It Had Been A Dream
TTITLE19=The Louvin Brothers - The Great Atomic Power
TTITLE20=Red Simpson - Roll, Truck, Roll
TTITLE21=Rose Maddox - Take Me Back Again
TTITLE22=Buck Owens and Rose Maddox - Mental Cruelty
TTITLE23=Buck Owens - You're For Me
TTITLE24=Voices of producer Ken Nelson and Gene O'Quin
EXTD=YEAR: 1989
EXTT0=
EXTT1=
EXTT2=
EXTT3=
EXTT4=
EXTT5=
EXTT6=
EXTT7=
EXTT8=
EXTT9=
EXTT10=
EXTT11=
EXTT12=
EXTT13=
EXTT14=
EXTT15=
EXTT16=
EXTT17=
EXTT18=
EXTT19=
EXTT20=
EXTT21=
EXTT22=
EXTT23=
EXTT24=
PLAYORDER=
